<svg width="90" height="109" viewBox="0 0 90 109" xmlns="http://www.w3.org/2000/svg"><title>0</title><path d="M88.482 9.516C93.854 15.7 96.54 24.392 96.54 35.59c0 11.914-2.898 23.55-8.692 34.912-5.795 11.36-13.59 20.59-23.39 27.686-9.797 7.096-20.328 10.644-31.59 10.644-6.707 0-12.533-1.367-17.48-4.102-4.95-2.734-8.742-6.77-11.378-12.11C1.373 87.284.055 80.806.055 73.188c0-11.85 3.027-23.437 9.082-34.765 6.054-11.328 14.095-20.524 24.12-27.588C43.285 3.77 53.898.238 65.095.238c10.22 0 18.017 3.093 23.388 9.278zm-47.85 4.345c-6.61 6.74-11.948 15.61-16.017 26.613-4.07 11.002-6.103 22.526-6.103 34.57 0 20.117 6.054 30.176 18.164 30.176 7.487 0 14.404-3.533 20.752-10.597 6.347-7.064 11.377-16.227 15.088-27.49 3.71-11.263 5.566-22.787 5.566-34.57 0-10.287-1.465-17.66-4.394-22.12-2.93-4.46-7.064-6.69-12.403-6.69-7.16 0-14.046 3.37-20.654 10.108z" fill="#3E3E3E" fill-rule="evenodd"/></svg>