<svg width="93" height="119" viewBox="0 0 93 119" xmlns="http://www.w3.org/2000/svg"><title>2</title><path d="M93.516 6.57c5.37 3.796 8.056 9.13 8.056 16.006 0 7.162-2.918 14.484-8.755 21.968-5.836 7.484-12.622 14.323-20.356 20.518-7.733 6.194-17.187 13.16-28.358 20.893-8.523 5.944-14 9.92-16.436 11.924 4.01 0 11.602 1 22.773 3.007 11.888 2.077 19.837 3.115 23.847 3.115 10.098 0 15.147-3.51 15.147-10.527 0-5.372-3.223-9.56-9.668-12.57l2.9-2.792c8.093 3.724 12.14 9.49 12.14 17.295 0 4.082-.968 7.842-2.902 11.28-1.933 3.437-4.96 6.23-9.077 8.378-4.118 2.15-9.292 3.223-15.522 3.223-4.8 0-11.423-1.04-19.873-3.116-4.87-1.146-9.006-2.023-12.408-2.632-3.4-.61-7.107-.913-11.118-.913-4.368 0-8.253.41-11.655 1.234-3.4.824-7.357 2.202-11.87 4.136l1.075-4.62c.716-.572 5.48-4.045 14.287-10.42 12.676-8.95 23.436-17.06 32.28-24.33 8.845-7.27 16.65-15.505 23.418-24.707 6.768-9.203 10.152-18.495 10.152-27.876 0-6.016-1.45-10.742-4.35-14.18-2.9-3.437-7.11-5.156-12.623-5.156-5.3 0-10.904 1.755-16.812 5.265-5.91 3.51-10.85 8.003-14.825 13.48-3.974 5.48-5.962 11.012-5.962 16.598 0 3.652 1.004 6.338 3.01 8.056 2.005 1.718 5.263 2.578 9.775 2.578 3.795 0 7.197-.717 10.205-2.15 3.008-1.43 6.338-3.723 9.99-6.874l2.686 3.008c-3.868 3.652-7.932 6.338-12.193 8.057-4.26 1.717-8.36 2.577-12.3 2.577-4.51 0-8.38-1.11-11.6-3.33-3.224-2.22-4.835-6.123-4.835-11.71 0-6.445 2.29-12.8 6.875-19.067 4.583-6.266 10.742-11.387 18.476-15.36C54.843 2.863 63.114.876 71.923.876c9.023 0 16.22 1.898 21.592 5.693z" fill="#3E3E3E" fill-rule="evenodd"/></svg>