<svg width="89" height="134" viewBox="0 0 89 134" xmlns="http://www.w3.org/2000/svg"><title>5</title><path d="M77.352 19.82c-2.474 0-6.185-1.237-11.133-3.71-2.28-1.173-4.152-2.035-5.616-2.59-1.465-.552-2.88-.83-4.25-.83-.52 0-.91.034-1.17.1L32.82 58.59c4.297-2.28 8.66-3.988 13.086-5.127 4.427-1.14 9.408-1.71 14.942-1.71 10.22 0 17.87 2.084 22.95 6.25 5.077 4.168 7.616 9.7 7.616 16.602 0 12.24-4.883 22.738-14.648 31.495-9.766 8.756-21.696 15.413-35.79 19.97-14.097 4.558-27.492 7.064-40.187 7.52l.976-3.613c10.807-.066 21.663-2.28 32.568-6.64 10.905-4.363 19.97-10.694 27.197-18.995 7.228-8.3 10.84-18.083 10.84-29.346 0-5.338-1.708-9.538-5.126-12.598-3.418-3.06-8.708-4.59-15.87-4.59-7.03 0-14.42 1.79-22.167 5.372l-2.05-.977L57.233.387c2.344-.13 4.427-.017 6.25.342 1.823.357 4.004.96 6.543 1.805 2.865.912 5.42 1.61 7.666 2.1 2.246.488 4.965.732 8.155.732 7.552 0 13.053-2.995 16.504-8.984l2.44 1.465C98.088 12.496 88.94 19.82 77.353 19.82z" fill="#3E3E3E" fill-rule="evenodd"/></svg>