<svg width="96" height="138" viewBox="0 0 96 138" xmlns="http://www.w3.org/2000/svg"><title>3</title><path d="M96.273 6.023c4.883 3.45 7.325 8.3 7.325 14.55 0 5.73-2.116 11.07-6.348 16.017-4.232 4.948-9.52 9.163-15.87 12.646-6.347 3.483-12.743 6.07-19.19 7.764 6.056.13 11.51 1.074 16.36 2.832 4.85 1.758 8.674 4.33 11.473 7.715 2.8 3.385 4.2 7.454 4.2 12.207 0 11.458-5.046 21.517-15.137 30.176-10.09 8.66-22.493 15.315-37.207 19.97-14.715 4.655-28.68 7.08-41.896 7.276l.977-3.613c11.46-.717 22.934-3.305 34.425-7.764 11.49-4.46 21.06-10.727 28.71-18.8 7.65-8.073 11.475-17.61 11.475-28.613 0-5.34-1.497-9.636-4.492-12.89-2.995-3.256-7.16-5.014-12.5-5.274-3.125 1.237-5.47 2.116-7.03 2.636-1.564.52-3.094.78-4.59.78-2.345 0-3.517-.683-3.517-2.05 0-.13.067-.456.197-.977.52-2.474 3.678-3.71 9.472-3.71 1.692 0 2.994.032 3.906.097 5.338-2.018 10.237-4.753 14.697-8.203 4.46-3.45 8.024-7.373 10.693-11.768 2.67-4.395 4.004-9 4.004-13.82 0-5.598-1.465-9.993-4.394-13.183-2.93-3.19-6.934-4.785-12.012-4.785-4.557 0-9.375 1.286-14.453 3.858-5.077 2.57-9.31 5.892-12.695 9.96-3.385 4.07-5.078 8.187-5.078 12.354 0 3.255.912 5.664 2.735 7.227 1.823 1.563 4.785 2.344 8.886 2.344 4.493 0 8.627-1.01 12.403-3.027l2.247 3.027c-5.208 2.8-10.547 4.2-16.016 4.2-4.165 0-7.714-.993-10.643-2.98-2.93-1.985-4.395-5.516-4.395-10.595 0-4.883 1.986-9.717 5.957-14.503 3.97-4.785 9.31-8.69 16.015-11.718C61.67 2.36 68.897.847 76.645.847c8.203 0 14.746 1.725 19.628 5.175z" fill="#3E3E3E" fill-rule="evenodd"/></svg>