<?xml version="1.0" encoding="iso-8859-1"?>
<!-- Generator: Adobe Illustrator 19.0.0, SVG Export Plug-In . SVG Version: 6.00 Build 0)  -->
<svg version="1.1" id="Layer_1" xmlns="http://www.w3.org/2000/svg" xmlns:xlink="http://www.w3.org/1999/xlink" x="0px" y="0px"
	 viewBox="0 0 512 512" style="enable-background:new 0 0 512 512;" xml:space="preserve">
<g>
	<g>
		<g>
			<path d="M196.331,375.479l56.636,75.597c0.99,1.323,2.321,1.519,3.029,1.519c0.708,0,2.04-0.196,3.038-1.527l56.61-75.477
				l-119.236-0.12C196.356,375.47,196.331,375.479,196.331,375.479z"/>
			<path d="M255.997,307.203c28.237,0,51.2-22.963,51.2-51.2s-22.963-51.2-51.2-51.2s-51.2,22.963-51.2,51.2
				S227.761,307.203,255.997,307.203z"/>
			<path d="M375.467,0H136.533c-14.123,0-25.6,11.486-25.6,25.6v460.8c0,14.123,11.477,25.6,25.6,25.6h238.933
				c14.114,0,25.6-11.477,25.6-25.6V25.6C401.067,11.486,389.581,0,375.467,0z M329.301,385.818l-56.619,75.494
				c-3.977,5.308-10.061,8.346-16.683,8.346c-6.63,0-12.715-3.038-16.683-8.337l-56.619-75.503c-3.917-5.222-4.54-12.1-1.621-17.937
				c2.918-5.845,8.798-9.481,15.326-9.481h119.185c6.537,0,12.407,3.635,15.326,9.481
				C333.841,373.717,333.218,380.595,329.301,385.818z M187.733,256c0-37.641,30.626-68.267,68.267-68.267
				c37.641,0,68.267,30.626,68.267,68.267c0,37.641-30.626,68.267-68.267,68.267C218.359,324.267,187.733,293.641,187.733,256z
				 M330.914,144.128c-2.918,5.845-8.789,9.472-15.326,9.472H196.403c-6.528,0-12.407-3.627-15.326-9.472
				s-2.295-12.715,1.621-17.946l56.277-75.025c4.045-5.41,10.257-8.525,17.024-8.525c6.767,0,12.971,3.115,17.033,8.525
				l56.269,75.025C333.218,131.413,333.841,138.283,330.914,144.128z"/>
			<path d="M255.997,59.703c-0.785,0-2.27,0.222-3.371,1.69l-56.277,75.025l119.236,0.119c0.051,0,0.077-0.009,0.077-0.009
				l-56.286-75.136C258.267,59.925,256.783,59.703,255.997,59.703z"/>
		</g>
	</g>
</g>
<g>
</g>
<g>
</g>
<g>
</g>
<g>
</g>
<g>
</g>
<g>
</g>
<g>
</g>
<g>
</g>
<g>
</g>
<g>
</g>
<g>
</g>
<g>
</g>
<g>
</g>
<g>
</g>
<g>
</g>
</svg>
