<?xml version="1.0" encoding="iso-8859-1"?>
<!-- Generator: Adobe Illustrator 16.0.0, SVG Export Plug-In . SVG Version: 6.00 Build 0)  -->
<!DOCTYPE svg PUBLIC "-//W3C//DTD SVG 1.1//EN" "http://www.w3.org/Graphics/SVG/1.1/DTD/svg11.dtd">
<svg version="1.1" id="Capa_1" xmlns="http://www.w3.org/2000/svg" xmlns:xlink="http://www.w3.org/1999/xlink" x="0px" y="0px"
	 width="399.837px" height="399.837px" viewBox="0 0 399.837 399.837" style="enable-background:new 0 0 399.837 399.837;"
	 xml:space="preserve">
<g>
	<path d="M394.457,106.222H5.375c-2.974,0-5.375,2.41-5.375,5.375v176.642c0,2.966,2.402,5.376,5.375,5.376h389.086
		c2.971,0,5.375-2.41,5.375-5.376V111.597C399.832,108.631,397.433,106.222,394.457,106.222z M112.448,164.829H50.324v25.455h59.909
		v19.435H50.324v24.978h62.124v20.547h-82.83c0-36.835,0-73.818,0-110.651h82.825v20.236H112.448z M227.719,255.243h-23.391
		l-28.293-41.571l-28.297,41.571h-23.394v-0.631l38.407-55.321l-37.3-53.738v-0.956h22.922l27.662,41.261l27.662-41.261h22.911
		v0.956l-37.457,53.738l38.568,55.321V255.243L227.719,255.243z M260.97,255.243h-20.703V144.598h20.703V255.243z M370.215,163.566
		h-35.082v91.677h-20.866v-91.677h-35.082v-18.969c31.922,0,58.952,0,91.035,0v18.969H370.215z"/>
</g>
<g>
</g>
<g>
</g>
<g>
</g>
<g>
</g>
<g>
</g>
<g>
</g>
<g>
</g>
<g>
</g>
<g>
</g>
<g>
</g>
<g>
</g>
<g>
</g>
<g>
</g>
<g>
</g>
<g>
</g>
</svg>
