<?xml version="1.0" encoding="iso-8859-1"?>
<!-- Generator: Adobe Illustrator 19.0.0, SVG Export Plug-In . SVG Version: 6.00 Build 0)  -->
<svg version="1.1" id="Capa_1" xmlns="http://www.w3.org/2000/svg" xmlns:xlink="http://www.w3.org/1999/xlink" x="0px" y="0px"
	 viewBox="0 0 512 512" style="enable-background:new 0 0 512 512;" xml:space="preserve">
<g>
	<g>
		<polygon points="175.028,33.948 0,33.948 0,63.948 164.972,63.948 482,303.415 482,394 443.589,394 443.589,339.948 
			372.057,339.948 372.057,285.895 303.646,285.895 303.646,231.843 235.234,231.843 235.234,176.744 166.822,176.744 
			166.822,122.692 0,122.692 0,206.744 68.411,206.744 68.411,260.796 136.822,260.796 136.822,315.895 205.234,315.895 
			205.234,369.948 276.766,369.948 276.766,424 345.178,424 345.178,478.052 512,478.052 512,288.48 		"/>
	</g>
</g>
<g>
</g>
<g>
</g>
<g>
</g>
<g>
</g>
<g>
</g>
<g>
</g>
<g>
</g>
<g>
</g>
<g>
</g>
<g>
</g>
<g>
</g>
<g>
</g>
<g>
</g>
<g>
</g>
<g>
</g>
</svg>
