<?xml version="1.0" encoding="iso-8859-1"?>
<!-- Generator: Adobe Illustrator 18.0.0, SVG Export Plug-In . SVG Version: 6.00 Build 0)  -->
<!DOCTYPE svg PUBLIC "-//W3C//DTD SVG 1.1//EN" "http://www.w3.org/Graphics/SVG/1.1/DTD/svg11.dtd">
<svg version="1.1" id="Capa_1" xmlns="http://www.w3.org/2000/svg" xmlns:xlink="http://www.w3.org/1999/xlink" x="0px" y="0px"
	 viewBox="0 0 458.436 458.436" style="enable-background:new 0 0 458.436 458.436;" xml:space="preserve">
<g>
	<circle cx="110.622" cy="49.497" r="35.414"/>
	<path d="M179.733,130.966c-7.928-23.069-21.22-34.767-39.509-34.767c-25.696,0-33.645,0-59.204,0
		c-18.289,0-31.582,11.697-39.509,34.766C29.225,166.718,1.324,243.053,1.044,243.82c-3.241,8.863,1.317,18.675,10.181,21.915
		c8.839,3.236,18.668-1.299,21.915-10.181c0.239-0.65,20.274-55.466,33.959-94.208c-0.918,7.503,2.003-8.404-24.27,127.244
		c-0.539,2.782,0.194,5.659,1.997,7.846c1.802,2.187,4.489,3.463,7.323,3.463c3.676,0,8.103,0,13.039,0v123.948
		c0,11.324,9.181,20.505,20.505,20.505s20.505-9.181,20.505-20.505V299.9c2.948,0,5.905,0,8.853,0v123.948
		c0,11.324,9.181,20.505,20.505,20.505s20.505-9.181,20.505-20.505V299.9c4.937,0,9.364,0,13.038,0c2.836,0,5.523-1.268,7.326-3.456
		c1.803-2.188,2.532-5.068,1.993-7.852c-26.491-136.771-23.357-119.781-24.341-127.825c14.733,40.36,38.597,101.258,39.774,104.262
		c3.444,8.784,13.358,13.115,22.146,9.67c8.786-3.445,13.116-13.36,9.671-22.146C225.33,251.696,191.956,166.531,179.733,130.966z"
		/>
	<circle cx="371.851" cy="49.898" r="35.33"/>
	<path d="M457.807,136.628c-0.111-22.133-18.209-40.139-40.342-40.139c-1.276,0-8.872,0-92.522,0
		c-22.133,0-40.229,18.006-40.341,40.139l-0.629,125.236c-0.047,9.415,7.547,17.085,16.961,17.133c0.029,0,0.059,0,0.088,0
		c9.374,0,16.997-7.576,17.045-16.961l0.629-125.236c0-0.001,0-0.001,0-0.001c0.11-2.056,1.837-3.649,3.895-3.593
		c2.057,0.056,3.694,1.741,3.694,3.799c0.001,42.072,0.008,276.941,0.008,286.358c0,11.298,9.158,20.456,20.456,20.456
		c11.298,0,20.456-9.158,20.456-20.456V259.855v0h8.833v0v163.508c0,11.298,9.158,20.456,20.456,20.456
		c11.298,0,20.456-9.158,20.456-20.456c0-76.586-0.352-207.118-0.371-286.504c0-1.959,1.579-3.552,3.538-3.568
		c1.959-0.016,3.565,1.55,3.597,3.509c0-0.001,0,0,0,0l0.629,125.237c0.048,9.386,7.67,16.961,17.045,16.961
		c0.028,0,0.059,0,0.088,0c9.414-0.048,17.008-7.718,16.961-17.133L457.807,136.628z"/>
	<path d="M252.979,29.008c-8.284,0-15,6.716-15,15v367.036c0,8.284,6.716,15,15,15c8.284,0,15-6.716,15-15V44.008
		C267.979,35.724,261.263,29.008,252.979,29.008z"/>
</g>
<g>
</g>
<g>
</g>
<g>
</g>
<g>
</g>
<g>
</g>
<g>
</g>
<g>
</g>
<g>
</g>
<g>
</g>
<g>
</g>
<g>
</g>
<g>
</g>
<g>
</g>
<g>
</g>
<g>
</g>
</svg>
